<svg xmlns="http://www.w3.org/2000/svg" viewBox="0 0 96 96">
  <rect width="96" height="96" fill="#111827"/>
  <g fill="#4ade80">
    <!-- antenna -->
    <rect x="21" y="8" width="8" height="8"/>
    <rect x="67" y="8" width="8" height="8"/>
    <!-- row 1 -->
    <rect x="29" y="16" width="8" height="8"/>
    <rect x="59" y="16" width="8" height="8"/>
    <!-- head -->
    <rect x="21" y="24" width="8" height="8"/>
    <rect x="29" y="24" width="8" height="8"/>
    <rect x="37" y="24" width="8" height="8"/>
    <rect x="45" y="24" width="8" height="8"/>
    <rect x="59" y="24" width="8" height="8"/>
    <rect x="67" y="24" width="8" height="8"/>
    <!-- eyes -->
    <rect x="13" y="32" width="8" height="8"/>
    <rect x="21" y="32" width="8" height="8"/>
    <rect x="37" y="32" width="8" height="8"/>
    <rect x="45" y="32" width="8" height="8"/>
    <rect x="67" y="32" width="8" height="8"/>
    <rect x="75" y="32" width="8" height="8"/>
    <!-- body full -->
    <rect x="5"  y="40" width="8" height="8"/>
    <rect x="13" y="40" width="8" height="8"/>
    <rect x="21" y="40" width="8" height="8"/>
    <rect x="29" y="40" width="8" height="8"/>
    <rect x="37" y="40" width="8" height="8"/>
    <rect x="45" y="40" width="8" height="8"/>
    <rect x="53" y="40" width="8" height="8"/>
    <rect x="59" y="40" width="8" height="8"/>
    <rect x="67" y="40" width="8" height="8"/>
    <rect x="75" y="40" width="8" height="8"/>
    <rect x="83" y="40" width="8" height="8"/>
    <!-- row 5 -->
    <rect x="5"  y="48" width="8" height="8"/>
    <rect x="21" y="48" width="8" height="8"/>
    <rect x="29" y="48" width="8" height="8"/>
    <rect x="37" y="48" width="8" height="8"/>
    <rect x="45" y="48" width="8" height="8"/>
    <rect x="53" y="48" width="8" height="8"/>
    <rect x="59" y="48" width="8" height="8"/>
    <rect x="67" y="48" width="8" height="8"/>
    <rect x="83" y="48" width="8" height="8"/>
    <!-- shoulders -->
    <rect x="5"  y="56" width="8" height="8"/>
    <rect x="21" y="56" width="8" height="8"/>
    <rect x="67" y="56" width="8" height="8"/>
    <rect x="83" y="56" width="8" height="8"/>
    <!-- feet -->
    <rect x="29" y="64" width="8" height="8"/>
    <rect x="37" y="64" width="8" height="8"/>
    <rect x="53" y="64" width="8" height="8"/>
    <rect x="67" y="64" width="8" height="8"/>
  </g>
</svg>
